<svg width="400" height="400"><path d="M128.6523535831433,74.12223678828741L128.84886404360276,74.12235076771321L129.1436297346417,74.12252114742296L129.19275734984888,74.12254947527254L129.21732115747386,74.12256363183405L129.24188496508452,74.12257778346975L129.41383161847256,74.12267670745496L129.95423538710605,74.12298604449461L132.80363709850806,74.12457777939562L133.83539931280035,73.97238696346903L134.84244937751345,74.09512596063723L136.68464006571025,74.27939034809242L138.183157237826,74.03575218025071L139.14103911093446,74.25008170962246L142.9484474604598,74.22135883982992L148.57358956491004,74.16274222009088L148.91747028001222,74.19343587713229L149.53154072241045,74.25479004965018L152.92133813214258,74.28668613808986L154.19865783708016,74.28716903105669L155.62336059073044,74.28769197338988L157.24438267873234,74.83817001991702L164.66285405541274,74.29062493622041L166.8981883091305,74.19959711121192L168.39659723499415,74.13889140361425L170.73015927390003,74.13946959997702L171.0986092511991,74.17010701276013L173.50581062187368,74.41505116652115L175.2498758941391,74.26266408103402L176.92023967864026,74.14078858304856L179.0818550726937,74.14117569803784L181.29250969846584,74.72198553448106L185.17368030674794,74.14206200832996L185.93516895760226,74.0505010410343L186.77034779739608,73.95894331236923L186.8194753471959,73.95894859349937L186.86860289698066,73.95895385497715L186.96685475524575,73.98951449026936L190.03731499634839,74.14255274619791L192.05153964250414,74.26490027959517L193.94296104662007,74.14280741602124L195.3922224971377,74.2345208431143L196.17826410675195,74.26509798489133L196.27651945121517,74.2651010024565L202.85963677758065,74.66227639091812L203.98957292331875,74.54004419933335L206.863543059125,74.44826672240015L213.25014666452668,74.41719368412305L215.1661282520366,74.41697207530524L215.78022491393324,74.41689472271537L215.87848037978952,74.41688206142135L215.92761207387764,74.4474258734117L216.07499930714124,74.47795684727316L216.2223866136723,74.50848764436523L216.32064621169775,74.53902480167744L216.59086964200006,74.69173946736555L219.21912797473584,74.1720034418613L219.95603753628225,74.14133576519816L220.44731376346758,74.14125497237546L221.23335044552493,74.11057144586084L222.09308362749334,74.11041982942697L222.31415787411984,74.11037986977317L222.53523772515433,74.14088968353462L223.7143006653788,74.14066772390652L224.00906640008063,74.14061046570714L224.35295975708937,74.14054277052492L228.28317657114633,74.17025090825337L229.68330676452405,74.13937038520089L237.7893643151124,74.1371441699448L240.46680958942008,74.10574115414056L240.81070284874704,74.10562738516455L241.3019892046659,74.13601335810381L244.2005188085087,74.13500460200157L245.28131518979058,74.10406077990046L251.54502102990577,73.94884128692502L254.78754803552556,74.1918392887601L254.98404493272122,74.16120131778007L255.84376457994958,74.13026331848232L258.0299435855182,74.12925001674739L260.6829254886752,74.31126914858032L261.2969453993169,74.1582134102573L262.4023325795263,74.18820702720404L263.82700243077517,74.12637468739558L266.3816384877149,74.12502075039083L268.322213302787,74.18505710743193L269.28016782519495,74.12342021637596L271.5646019369641,74.12211058526009L273.9964188674196,74.12066977896029L275.22451568413726,73.96717297261057L276.03515812799,74.0277742330436L276.08428570529315,74.02774381437484L276.32992359166053,74.02759142638388L277.582734691479,74.11845710391935L280.2601696524912,74.0861867466665L281.0953590304224,74.11618839738367L282.8393892721398,74.11502466083039L284.3623452442287,74.11398818835005L285.2957698658761,74.11334359838656L286.2046306769787,74.11270915602654L287.31000192735166,74.11192847446364L291.21551084359527,73.92578942573164L294.7037543212423,74.1675511294743L294.72893066616473,74.96183644297707L294.7306975749521,77.25309893888334L294.73098028038214,77.61970096942241L294.7321111021683,79.08610917717306L294.73270007189046,79.84986350632971L294.7328178658383,80.00261437657173L294.733948687796,81.4690228068066L294.73409004054804,81.65232387014112L294.7349852746829,82.81323065432662L294.7362103320267,84.40184007616335L294.85970014912243,85.25715043352102L294.71484763480186,88.55668441256421L294.74052159250033,89.99252449852793L294.7414639447178,91.2145322836659L294.7418173268179,91.67278522714332L294.79210694118854,93.16970703332481L294.7445501487328,95.21660843201244L294.74509200142535,95.91926312571013L294.74645841266783,97.69117509776697L294.74782482406,99.4630872638736L294.748508029812,100.3490434195337L294.7491912356013,101.23499962350616L294.7498744414278,102.1209558756891L294.75013358847514,102.45700825979293L294.7505105296445,102.94581173996994L294.7507696767049,103.28186414107768L294.753031324004,106.21468538935733L294.7543506184486,107.92549802644498L294.7556699130304,109.6363108413716L295.19931906711815,111.40788243828138L295.12610193681945,112.04949444453814L295.00409529568003,113.1493979834122L294.8579155393759,114.76867451424914L294.73632770969937,116.41848233006021L294.83504116008294,116.96831089582702L294.7629967122035,119.13743522333243L294.76426888997673,120.78714868948009L294.76858016002313,126.37784552539961L294.77041775096694,128.76076604877017L294.7706297807078,129.03571843833925L294.8224900316849,132.54896144811937L294.8739521771655,135.542850433063L294.87423517683135,135.90945376482705L294.89956620098485,136.88704371333006L294.9253459311801,138.4450890685257L294.90350563404945,141.98894117267628L294.90628918625134,145.59387560703908L294.9074686576959,147.12139042138733L294.9090727390246,149.19881078145409L294.8622728201177,152.25387911432335L294.8630037139181,153.2009386406353L294.83894265780316,153.87306439878012L294.81490489791133,154.57574048807146L294.88956433427677,155.76714573468053L294.9147577934827,156.56143490014802L294.9152531717831,157.2029915025414L294.9153003506698,157.26409213254374L294.9164562334436,158.76105763250234L294.9168336645743,159.24986272070964L294.9169044329125,159.34151367624145L294.91716391682206,159.6775671838186L294.9172346851619,159.76921814148955L294.91739981128956,159.9830703779444L294.9177300635507,160.41077485842106L294.9181546736123,160.96068063393614L294.9214336073005,165.20717579668417L294.92174027020263,165.60433007130632L294.55317324223455,165.81846654037508L294.55331422915117,166.00176851879223L294.5554995265398,168.8429494196098L294.8750752558087,168.84270320223004L294.8509875011956,169.48427920902031L294.50682722739236,169.48454426437092L294.5072734539134,170.06500065219734L294.851458923848,170.09528593223513L294.999429072681,170.7061787845596L294.80342375409896,171.56174007563823L294.80599167626826,174.8917273397965L294.80686335637574,176.02209012541425L294.80794706685367,177.42740611691988L294.808441804273,178.06896345269342L294.8096904273593,179.68813206494815L294.811339552356,181.82665686203836L294.8116458184475,182.223811494041L294.8116693773779,182.25436185068247L294.81174005416926,182.34601292094885L294.81176361309986,182.3765632778377L294.8119992024073,182.6820668491273L294.8123525863757,183.14032221535308L294.81242326317044,183.23197328997048L294.8125646167609,183.41527544047858L294.8126352935567,183.50692651640566L294.81343629726587,184.54563874141604L294.81383679913694,185.06499487533438L294.93787546606177,186.50076704811363L294.9395503192957,188.6698429832686L294.8664737434382,189.5558605799597L294.9408477409462,190.35011324399238L294.94193285732354,191.75543030298286L294.9419800362983,191.81653104705038L295.0426907982423,194.87149251553637L295.0430213932276,195.29919779708143L294.9957570542945,197.77381654224155L294.8259932140619,200.82898778845993L294.82606389092194,200.9206389477622L294.8265350699973,201.53164668734098L294.8268177774496,201.89825134024431L294.8270298080423,202.17320483448566L294.95035430668406,202.66191618343146L295.04909017389855,203.15064642992365L295.17322044197795,204.67807089148118L295.19797591035075,204.89190460497048L295.173551464762,205.1057763884528L295.1736696871866,205.25852835390833L295.1737642651269,205.3807299271066L295.17390613203855,205.56403228834824L295.14964697790987,205.99175683373323L295.10160067974266,207.4582138611877L295.10167155822455,207.54986505131092L295.0288444061391,208.77193798989174L294.9802528308618,209.53573596708884L294.9803708089518,209.68848796702514L294.81044836442334,212.56035861689452L294.93460857004936,214.11833445308002L294.96040343727236,215.67638627990527L295.0839308862494,216.4095011100144L295.2074361507115,217.11206543137814L295.183411218107,217.8452943546872L295.1593859922686,218.57852330000605L295.0861511722509,219.281239890297L294.96424852887924,220.65610360928258L294.98893602069614,220.77828628490533L295.09059174519854,225.0247186727138L295.09165464848326,226.39948777018435L294.9941506560433,227.5299295632285L294.6513325296031,229.48542245158023L294.84971709838305,231.59325065855228L294.8501647191875,232.17370889667654L294.85148402268385,233.88453327173193L294.85221435145166,234.83159682551195L294.8528504442765,235.65645866547857L294.8535336551162,236.5424214186569L294.85412263000126,237.30618244288053L294.85530057983567,238.83370457471028L294.8564785297556,240.36122681736015L294.8574444487534,241.61379513882275L294.8590229018729,243.66067523808306L294.8604835601188,245.55480326666293L294.86057779613907,245.6770050807536L294.86128456630865,246.5935187085488L294.8615437153784,246.92957371527882L294.985101679938,247.66268974998093L295.0839916123577,248.30417332954676L294.98842780717825,251.97030453573825L294.9639699368257,252.1536263036396L294.9149596912474,252.3980679765882L294.86609060426116,252.82581241449952L294.86731567298045,254.41443658762L294.8673627910099,254.475537519691L294.8681402385149,255.48370292331674L294.869459543454,257.1945291692755L294.87028410909335,258.26379564093077L294.87245153896504,261.0744391857661L294.8727578062518,261.4715953677296L294.8732761047496,262.14370584575954L294.8737944032631,262.81581634416943L294.87511370864115,264.52664315923175L294.8759147155272,265.5653595039694L294.87645657314783,266.26802058813337L294.8769748717573,266.9401312109767L294.8774931703824,267.6122418540981L294.878058587082,268.34545348768006L294.9028261885581,268.55928791047336L294.8786004447698,269.0481146590173L294.8791894205366,269.81187682663585L294.8798019553552,270.60618950844946L294.8803673721301,271.33940123952925L294.9052298328826,271.67543764889706L294.9054890494472,272.01149303852435L294.9301159992857,272.042024548442L294.93061099557406,272.68358485234785L294.9309409931074,273.11129173170775L294.90702078377115,273.99727498804714L294.88319445627843,275.0054602507662L294.8841368177624,276.227480052381L294.88484358890844,277.1439949464475L294.8855739191224,278.09106037552556L294.88578595048045,278.3660148622148L294.8858095095204,278.39656536094844L294.8877177918596,280.87115589247696L294.88854235836567,281.940423488144L294.8894140429992,283.070792142913L294.98922782868794,284.8731960644727L295.0396431104555,286.43123398785974L295.164989793034,289.4250890029798L295.16567495431684,290.31105390146695L295.29031880590037,292.38839375347015L295.1445636978697,294.8325494787932L295.2695900661741,297.39869811551034L295.26968466895363,297.5209002093543L295.2697556210386,297.6125517801338L295.344149171323,298.3457071843659L295.07468137614177,299.9345439400786L295.2978180126714,302.0729095910283L295.17573974022974,303.3255765445065L295.1763540231136,304.1198903600962L295.1790710438005,307.6332017763998L295.3290450248476,342.39964056583267L295.28009385277795,342.76628561271355L295.133285793022,343.9273218247981L295.05973918056173,344.3245364053146L295.08471095564187,344.7827760927321L295.15967460864636,346.21859633429995L295.1846471290246,346.67683603330806L295.1847179896099,346.76848778025305L295.1602885748807,347.01291147153825L295.1131523886566,349.7319515104682L294.9465919304761,357.21697903559107L293.864062169837,358.2259792807454L291.94497711452254,359.99936293151404L291.8711597860431,360.0605192619623L291.8711825815252,360.09106985956896L291.7727441576709,360.1522444998336L291.6989266519688,360.21340072731255L291.6743283826398,360.243969659321L291.60051077302245,360.30512582800293L291.4282542750411,360.42745631805155L290.91152784181975,360.8555475424582L290.73926988916725,360.9778770709454L289.5089221326103,361.9563973382028L289.0659806609566,362.2927753207332L287.41725569540915,363.57708281071245L287.0235245979902,363.8828678915015L286.6297915447633,364.18865171647485L285.8177189304638,364.8307833659055L285.6208496351943,364.9836735124918L284.58727256656096,365.77870398002415L283.92284988811116,366.32906977509265L283.67675206632396,366.5125409806569L283.23377826908643,366.84889803537226L281.7572085115539,368.010810880136L280.9204625704407,368.65292666174355L280.25598807741187,369.1727221155379L280.13293368427736,369.2644541241898L280.009879107808,369.3561860102127L279.37001992336553,369.8759606938838L277.42574827589806,371.37417911121156L276.78586769506103,371.89394040244224L276.6136943121569,372.199553892111L276.12149045597636,372.62756789579726L273.90649408068134,374.4925054104169L273.1435169996919,375.10397351054417L267.87618824490096,379.10912190068484L267.50698380322353,379.41483115628216L266.7926972871604,379.10971434187377L265.06859037951983,378.4079729222285L260.61059563016994,376.5161088609093L260.48744423767903,376.4550681601977L260.36429296730915,376.3940273364642L260.11800570772425,376.3024959393806L250.7593360973222,372.76283683573274L250.6115823882265,372.73234703094204L248.96155149577757,372.09145110676764L248.19814266346296,371.8778979358176L245.90794345342334,371.2677606513025L245.11993304050537,371.0847481958481L244.92292523078925,371.02371898638376L244.28267866513295,370.9017484186261L244.08567156358424,370.8407178700072L244.0610484225486,370.84072668316367L243.64234674643234,370.5353695992744L242.33699787995047,369.58875615205034L241.91830473614988,369.2833932190406L241.8690590768997,369.28340997363557L241.7705366677924,369.19179158156476L241.72128069386582,369.16125766305777L241.69664754344558,369.1307153894595L241.57352323330298,369.100206403411L241.4503887000642,369.03914668045036L241.0563529027208,368.8254243720439L240.88396330555628,368.733829879493L240.68695126346097,368.6422432842737L240.04665173119554,368.30639640845766L239.82500849912986,368.18426582792017L239.80038588927613,368.1842737890838L239.67725315155474,368.1232122949077L239.20936542719218,367.94005847581866L239.06161067805246,367.87900420455844L238.34748064736803,367.6348237503262L236.22972990875877,366.902250307794L235.5402334672794,366.6580463336868L235.51561116263437,366.6580534380482L234.55523839741954,366.2917193273606L231.67415439795212,365.19267208105884L231.00929853278174,364.94843641387706L230.71379687651256,364.79575741763256L229.90119150297198,364.4599007024808L227.46338835748585,363.391197186269L226.65079451035442,363.0247684280621L226.2568232010995,362.9026506318114L226.0844593810819,362.8415860476234L225.8628462564701,362.74998096725903L225.00103711569787,362.4752034869525L224.38545805615365,362.2614726765023L224.2623449087431,362.2309463884303L224.13923182241618,362.20041997729277L223.89299990458673,362.1088161781081L223.81912980968707,362.07827988161443L223.57289837435027,361.98667544264754L222.858827582655,361.711854604604L222.61259759480615,361.62024824643595L222.3663513246754,361.4369895749114L222.07085238706878,361.19263803512877L221.9723511845418,361.10100382920064L221.67685383512497,360.8566513467522L221.52910560022283,360.73447484037024L221.15970479432556,360.2457291656392L220.74104963211494,359.6653388802297L220.29776755300824,359.02385003540985L220.0268793635841,358.6572871329554L220.00225369569154,358.6267405310864L219.95300239659286,358.56564731260005L219.92837676536953,358.5351006960118L219.85449994500368,358.4434608169686L219.80524387826128,358.35181693597406L219.78061832645113,358.32127029007097L219.75599278685837,358.29072363932937L219.50973322192502,357.9547062589845L219.48510298801557,357.89360895108257L219.41122206587926,357.77141820489487L219.1649644801594,357.43540014123573L218.62321730943214,356.7939206083174L217.859854063529,355.87751563588245L217.07185256127974,354.7472551761457L216.57935948240416,354.0446586758553L216.57935536845827,354.014108076648L216.53010761241836,353.9530134990491L216.50548375272464,353.92246620291553L216.28386956523354,353.6475403176082L215.91451083623537,353.1587790300764L215.61903294049827,352.82276028465276L215.39742271147858,352.5478328146419L215.24968310859316,352.36454761453206L215.17581723782445,352.30345554582163L214.97883202916253,352.05907488746743L214.92958584918105,351.9979796740008L214.83109363581147,351.8757891882924L214.8064706130172,351.84524155464896L214.73260527370525,351.78414922116644L214.65873637022418,351.69250624675624L214.58486757673555,351.60086322836287L214.36326185600063,351.3259339090073L214.28939350232702,351.2342907145503L214.14165361572373,351.02045359751355L213.747692190542,350.53168868128705L213.64920570992916,350.4400478519383L213.5014712383996,350.25676056798693L213.4276041675724,350.1651168600074L212.5904642136232,349.248687469415L212.4673546280891,349.09594702625327L212.04879329160934,348.6682803852673L211.92568791771183,348.5460899969694L211.31015068048416,347.78238325456914L209.4882052117131,345.5217933857348L208.89731834664886,344.788623353852L208.82345798334643,344.69697690184694L208.6018796877719,344.45258787061175L208.52801974596545,344.36094124247757L207.8140479167607,343.5055721565441L207.7894263757998,343.44447254119586L207.02622826582012,342.5585514339691L205.99223290248105,341.30603207731474L205.69680911622856,340.9394390810412L204.98287679957102,340.0840536844189L204.95825980881114,340.08405467835837L204.9090221725341,339.99240489996737L204.88440520010082,339.99240587913664L204.4658978278385,339.47306185260095L203.45657190325446,338.2510710289789L203.23501425687846,337.9455712340714L202.8165208008937,337.42622164014756L202.07801258249305,336.5708200706358L199.83793373130268,334.0045889159883L199.099466960227,333.11861901259545L198.77946812517584,332.7214587719427L197.8194850915738,331.4688719469923L197.49949529544085,331.0411578304702L197.00720650082945,330.43013538331434L195.53037055014178,328.5665057446604L195.0381026584577,327.92492491084704L194.9888760271667,327.86382177704945L194.81658448896113,327.6194100853172L194.76735938850626,327.5277562943156L194.69351989973936,327.43610142524267L194.64429629346466,327.3138970165455L194.5458439594743,327.19169041726127L194.12742809350956,326.5806597935589L193.8320765077513,326.1834879637099L193.61056763737196,325.816869853712L193.58595509148137,325.78631800629955L193.51211591686973,325.7252130019333L193.1921509498769,325.3891394834791L193.11831391701656,325.29748367711L193.0690875693217,325.2669303483781L192.97063669187642,325.17527306545526L192.67528675724816,324.8697501799761L192.57683649072743,324.7780925834886L192.47838823767685,324.65588434262463L192.3307143211342,324.5031224005288L192.13381698675482,324.28925601510855L192.0845932512199,324.2281517284282L192.03536956455875,324.167047422241L191.93692033659323,324.0753893164001L191.69080100170345,323.8004178614865L191.5923544103459,323.67820891662996L191.49390590329054,323.5865504582325L191.2231792555232,323.25047524164256L191.12473136550375,323.1588164894929L191.0262858493727,323.03660709496035L190.75556168805008,322.70053085702966L190.65711690502818,322.57832116941427L190.6078899245982,322.5783174230819L190.50945245263154,322.36445592832024L190.06646957099483,321.6312074658417L189.91880978339987,321.38679096211854L189.7219241761564,321.1423701828753L189.13126665098395,320.4702070913336L188.93438407394245,320.22578506116406L188.88516631062535,320.1341289443153L188.71290051402607,319.85915822305105L188.66368306227903,319.7675020190072L188.51601689493776,319.64528608944966L188.1468674696941,319.1869926961299L187.99920251200544,319.06477614937467L187.80233048648807,318.7592512043193L187.50701807928436,318.36206431972096L187.1871013710507,317.9037730576456L187.01483926709716,317.6593505415076L186.965620724437,317.5982442237L186.6949163109453,317.2927096836356L185.8089814296379,316.314992910804L185.53828271005588,316.0094558424462L185.48906556032705,315.9483489382401L185.39062778125432,315.85668562632054L185.36602289981502,315.7955815921814L185.31680227658137,315.76502517463086L185.09532272284162,315.5205941106833L184.48010935245986,314.8178553123944L184.25863316499724,314.5734227520297L184.23402127548655,314.5734196018384L184.20941330545062,314.54286589316325L184.18480534763347,314.51231217957684L184.1601974020351,314.4817584610719L184.06175782955478,314.4206446451499L183.93870650810717,314.35952754139726L183.3972870906442,314.05395016157127L183.05275153799352,313.8400493300578L181.2808593864749,312.8316243593945L180.49336269714564,312.3732437917133L179.50900135540246,311.7926233709077L179.33673740846316,311.70094291796704L179.13986242138157,311.6092580553959L179.01681635444513,311.54813603783987L178.1062803440769,311.0897191793629L177.54027865807237,310.784111694913L177.0481016002798,310.5396164988706L176.87584123996777,310.4479326062137L176.8020138046076,310.41736816370394L176.58053753175068,310.29512402264663L176.40827786190312,310.2034394764705L176.35906169883896,310.1728794836017L176.26062944603066,310.1117594390453L176.1868023650318,310.0811946279209L176.1375863058387,310.05063454667106L176.08837027108564,310.0200744457761L176.06375929208815,310.0200696618049L176.01454924165895,309.95895898377785L175.9899382748825,309.95895418505825L175.94072231344958,309.92839402525715L175.81768551812397,309.8367182660513L175.76846964830605,309.80615803748515L175.57160034980282,309.71446747416485L175.399348350683,309.5922309708403L175.1286593913876,309.43942382579553L175.03022833614887,309.37830279899936L174.833360271895,309.28661105635547L174.73492948548568,309.2254897937455L174.26743249161885,308.70603362740076L171.2652888932546,307.14729144846933L169.5181923042284,306.16925369985984L168.04179396263373,305.34401448966673L163.9079785562295,303.0515809503413L160.3894469865116,301.0647136888001L159.77432712451076,300.7284582441134L159.65131156847303,300.6367663588462L159.4298699297394,300.51449140497425L158.4703014525626,299.9642616516867L158.15043681110717,299.811400607774L157.92900859233083,299.65857242390484L155.96061308063366,298.77191820439475L154.90267280523204,298.12997381405876L152.19637936786478,296.44867291935225L149.63776993895945,294.8590247220345L147.98941192159174,293.9723736865999L147.39895602803801,293.6666174101483L146.7101121661555,293.26916414604784L145.50470361174038,292.4437719477428L144.49607316510307,291.83231057403464L144.250082787935,291.64889620649774L143.46287359338524,291.15972860331385L142.7740706816575,290.73170282789215L140.51089484923773,289.32530533171666L140.4863027837409,289.2947429149426L140.24030861914005,289.14187106995814L136.13200304850812,287.1540232526968L130.42521691770193,283.7903715210414L129.04764813945022,283.17857451338205L127.84234939472982,282.53631271552877L126.71093388258899,281.8024315964285L125.57949491077885,281.12964110897883L124.91535952544542,280.79318195321684L123.39031671039338,280.02847899308836L119.11061649272709,277.6427998131476L117.11843362217078,276.48055452404515L115.39689080605753,275.37956442444556L114.58521158584787,275.01239750673267L113.8227664157081,274.6147092199608L113.74897613404579,274.5841070051538L113.45381537437025,274.4616977036858L113.08490841162454,274.2475840926636L113.06030458589603,274.24756671016803L113.01111853350505,274.21698143579124L112.91274650203894,274.1558108281897L111.4125301502903,273.29932557025313L109.00250356970703,271.77004134785966L106.71525089658591,270.6379597016785L105.65773909276629,270.08724425716355L104.30509719543534,269.41408851597225L103.49351436618271,269.01629804014374L103.19840119339166,268.86331368183164L103.14921974403764,268.8327244724642L101.18185913325217,267.7618924294293L101.13267862534886,267.73130241550825L100.78839111938427,267.54772225192573L100.0998688013763,267.1194580737574L99.8048141546721,266.9053646238317L98.08358550445304,265.7735822784598L97.3459549082054,265.253610514279L96.26405817733142,264.5500415403294L95.69868098423962,263.9996545357353L95.64950334328597,263.96906233514164L94.9117894726347,263.57127792602114L93.53475572744776,262.8063315308609L91.88709702046435,262.0716827134602L89.69853190583315,261.0004726061088L88.91170804014665,260.54150720709004L88.56745887933235,260.35789290545654L88.22323850265039,260.1437271715986L87.78064334069978,259.89892028592294L87.14135478245215,259.5317295473578L85.91213223968711,258.6446314200002L85.83838682172835,258.5834620212772L85.81378612828607,258.5834391904282L85.76461310927571,258.5528430462291L85.69083943350121,258.52222402700136L85.64166646951784,258.4916278337332L85.61706579443924,258.4916049635358L85.54329219205547,258.46098585591244L84.95321897192461,258.0938295358501L84.4367499553791,257.94059300456865L83.74810735291408,257.7566412357701L82.56806938383802,256.9306571801717L82.07626711542015,256.7163332983546L80.30620332004068,255.52315468004235L80.25703289335549,255.492556338766L80.20786249109115,255.4619579778955L78.56059275383518,254.5132777066683L76.76581148383549,253.50332673550292L75.88071627262302,253.0136290874725L74.72528269300803,252.279246171056L73.8894343948044,251.75903385962738L72.34059608887425,250.8714722034565L70.74238957513623,250.1671421118299L68.4565110659104,248.45389183680527L66.39118525380005,247.56570193902007L65.62909925397216,247.1371650866422L63.785369122570614,246.09642089346016L63.29371075784198,245.82092114631087L60.5895771674123,244.3514631369908L58.08214759895674,243.00437472583872L57.713431294863796,242.79009542387212L56.435143896338076,242.11649962686352L56.11559210077655,241.93282338715653L54.73904166791962,241.1674435583045L54.616127829750866,241.10619739103277L54.493214113907925,241.04495110115386L53.75577070952036,240.6469203523011L52.62503586128716,240.0345612697056L50.707805959053786,238.9324321249369L49.99502139871237,238.50385829053994L49.87282103525163,237.86214923648367L49.84848553728523,237.6482662136841L49.750733907523625,237.12878879751224L49.750995130510006,236.9149358050854L49.75200270486093,236.0900742834856L49.777606309771926,235.2652428361689L49.77794211288551,234.99028901363636L49.804366050485896,233.4933483019995L49.806678981777196,231.5992222033019L49.807425088600326,230.98821382123424L49.81037221033617,228.57473088859842L49.81425196500609,225.39748796552885L49.79081456221587,224.45039523224114L49.817795971149394,222.49519918794977L49.81850477231754,221.9147414820327L49.868288183942354,221.42599505789985L49.918332170835214,220.7233958006109L49.943670789095734,220.1124177509264L49.99363930392229,219.4709193114686L50.06913115528178,218.06569085624506L49.85197534487361,214.64377639339364L49.82779379627161,214.3076920339663L49.809955322373895,208.77804152679164L49.56808421147164,205.47829964403354L49.76599916141609,204.5009280010563L49.791521977939055,203.73719859329867L49.84159675705348,203.00404961506138L49.793611758304564,202.02637754020543L49.76973152298859,201.445890392788L49.769918141051875,201.29313852492487L49.820253268964876,200.34613704227377L49.82032789175008,200.28503629838087L49.82040251453503,200.22393555469898L49.82051444871203,200.1322844395545L49.82055176010422,200.10173406792455L49.845401896198325,199.88791149607277L49.8465210546544,198.97140037953795L49.84667027577788,198.849198900607L49.847752128895024,197.9632382013806L49.82327549157722,197.87155706915655L49.82331280296512,197.84100670105545L49.823424737128335,197.74935559719597L49.823536671291066,197.65770449368574L49.824021719323355,197.26054971700069L49.82428289902893,197.04669714832562L49.82443214457368,196.92449568156007L49.824506767345696,196.8633949484647L49.849169729456406,196.80232424301357L49.84987852970514,196.22186728997622L49.851669182870125,194.75544980222912L49.8526391199442,193.96114037634834L49.83088701347796,191.63928298599785L49.83099894760511,191.54763191162056L49.83107357035627,191.48653119562368L49.83114819310717,191.4254304798087L49.85625773098167,190.9977555006626L49.83211828884731,190.6311211920838L49.85946598359712,188.37042496429058L49.884985115617894,187.6066961757897L49.86159238334221,186.62905492507707L49.6913556491366,185.10132720312686L49.791453855622734,183.66558110396L49.916135190411524,182.22986504685105L49.89348932022244,180.64121726164012L49.84502802059927,180.06070076008473L49.82115206077606,179.48021429048094L49.970301669449896,178.13617953620997L49.99641453865274,176.8836457845391L49.9965636374223,176.76144444759848L49.99667546149885,176.66979344543506L49.996861834958565,176.51704177612555L50.02424126148006,174.22579687984398L50.10693279443586,166.89380908916064L49.471831650280365,163.59359411486366L49.62190053897359,161.48580321586633L49.62317120072035,160.44709275472997L49.62395602117439,159.80553632335068L49.62500244840308,158.95012778366072L49.62545091720014,158.5835241362438L49.60359885124919,156.35332203746657L49.630421445753626,154.52033421256783L49.63243955476861,152.8706182666283L49.63266378909202,152.6873165043071L49.6330001405729,152.4123638643141L49.63311225773205,152.3207129852526L49.634196056907115,151.43475451222184L49.634906132199376,150.85429898488655L49.61096241524325,150.33491398530168L49.613317260054714,148.41024585092237L49.542834794852894,145.75228091674944L49.49536193880982,144.37745811919012L49.49962656706296,140.8947266439136L49.55042634561511,139.55057486087753L50.11930869902946,136.58788948816073L50.14399674807618,136.4962686599465L50.16872200453753,136.37409756197303L50.14503975287991,135.64086124719324L49.93150232540938,129.37778839316888L49.93575511071177,125.89505993352213L49.96294020237673,123.75657281697931L49.940865912946094,121.70967667819059L49.80089432633841,115.5994498799264L49.6805751352984,113.5218842890099L49.73080194995009,112.6359879261654L49.92950076076889,110.89486557507189L49.734351157416654,109.73371706161561L49.76019212084978,108.69503976342821L49.86075210565576,106.83159688220621L49.95992882095476,106.0985118709068L49.96097336333949,105.24310600583703L49.96119719384342,105.05980475483375L49.96130910909446,104.96815413010336L49.9633235835056,103.31844297279895L49.964330820634956,102.49358745657082L49.91593820487458,101.8825233838943L49.74526029644673,100.81305613589211L49.74630637795855,99.95765054965887L49.747688699871816,98.82729323691456L49.945843062335285,97.51387503995647L49.848166491889,97.024951879328L49.7019147083418,96.07771567947202L49.82692151731197,94.30595488610561L49.77935469517516,93.02278697122529L49.82953543704724,92.16744186508731L49.929073888178806,91.12885571882362L49.954350008504406,90.54843227722449L49.97917823607597,90.334611013619L49.97921554112577,90.30406083309936L49.97932745627472,90.21241029196244L49.979402066373666,90.15130993150524L49.97999894715497,89.66250705612765L49.858209768493964,88.80695200572518L49.68788720826106,87.46253396900283L49.68829837011688,87.12648204824654L49.54336931262674,85.10999024442572L49.568907948469956,84.3157159182665L49.56902017513494,84.22406541197415L49.56958130845001,83.76581288862508L49.56973094399797,83.64361221792933L49.56995539731773,83.46031121371198L49.57036689506381,83.1242593781717L49.719442291393165,81.7496823376714L49.79463244573486,80.52776595776959L49.87101587203972,78.32824456194794L49.79967522138617,76.40349468613567L49.826741786189984,74.35666456454055L53.90452337104287,74.20883102966036L58.080373681325455,74.21372644440271L61.20011768592792,74.09509036099917L64.54066007098459,74.22102025669301L64.95824513586999,74.22148002946778L68.52000016398745,74.22534393033129L69.30610767466047,74.16508243327553L73.60486987670231,74.07793025202409L75.2996479470394,74.20186313666636L76.62606373876409,74.23375266393123L78.12448767876023,74.20469827143825L80.33520210121475,74.23742191769998L81.71077662118657,74.23875423106801L84.68302886706121,74.2110302216679L85.12517772324998,74.21144449563872L85.7147095338158,74.21199438532494L86.69723437907854,74.24345473996073L87.13941142019615,74.21331160488626L87.36051386546734,74.18296436094533L87.53248857389585,74.15257174962608L87.72905492618851,74.09165119136014L87.99931245102113,74.03079752971826L88.26956970763452,73.96994327381981L88.49067143390265,73.93959399612504L88.9082831703514,73.90942219393764L89.9153427828597,73.97142917932797L90.48030966400422,73.97193418246025L91.73306232176444,73.97304470324161L92.05239143238478,73.973325733823L92.76474098953581,73.97394965682179L93.4033992162485,73.97450552406372L93.72270189963444,74.00533237262425L94.14015459526969,74.15844374553853L94.50850687540016,74.28096136088425L97.6527801526329,74.1614205945516L101.26351372411635,74.34767698779615L103.13048699155769,74.19641252563451L104.08854762638833,74.10551375470823L104.65351512408311,74.10595357231068L105.930809557472,74.13748852715798L110.69610004392423,74.2632460071618L110.96630223734117,74.26344214478013L117.18105578649443,74.1150384466091L119.07246886652077,74.11629907765018L122.04457313519917,74.30152222424658L124.55021652761653,74.0892355264732L125.95035318649329,74.09008752667432L126.14686359554338,74.0902058285792L128.40671550781298,74.12209387194162Z"></path></svg>