<svg width="400" height="400"><path d="M246.27997850599058,62.90929458968458L246.41087772113679,63.05586119412328L246.60722698352765,63.275710708112456L246.63995191188587,63.31235224795819L246.65631438154378,63.330673012998886L246.67267685488332,63.348993774779956L246.78721427083656,63.47723901539575L247.14719017525204,63.880294442220475L249.04527426652203,66.00546959476196L249.84644820017274,66.6731638656056L250.42620113414887,67.50569088007614L251.516752923897,69.00179137471423L252.69721301156096,69.95647836706485L253.1759158018831,70.8134022076265L255.73515819155728,73.63252649261267L259.5282968488027,77.78677236044314L259.7346298906341,78.06358045760135L260.0982019014773,78.56224089881289L262.3338964415452,81.1104586608999L263.18493478992605,82.06297091352462L264.1341815553169,83.12537798620178L264.8043157338543,84.70070616542944L270.1572757200047,89.86591115382907L271.7150968766218,91.4715881247248L272.75911603345594,92.54812818071514L274.3141223893181,94.28809006448137L274.5368740175036,94.58317606714263L275.9587997441413,96.54091540254012L277.2349060807901,97.73947208259779L278.4391414809652,98.90342479237006L279.8796791261848,100.51508001427283L280.9202221499145,102.5501731709519L283.93952870657085,105.05688107250899L284.5153545015637,105.56351015766268L285.1402961282729,106.12507446861127L285.17303819343215,106.16170059789147L285.20578027323063,106.19832671407494L285.2484883943689,106.29193972850044L287.18102192024526,108.68285189152812L288.43239958291815,110.26592604945472L289.7841431283887,111.59452342358418L290.6817806774925,112.73602109555213L291.1829232243181,113.34236466266157L291.2484131421079,113.41561207489576L295.3403162613831,118.58779835191672L296.184595148894,119.34864627508796L298.1686583261326,121.42990088601073L302.44881703895226,126.17014481850492L303.7260810809821,127.5982841883233L304.1354652954906,128.05601694993675L304.20096698217094,128.12925400186214L304.2109465652611,128.18623869922885L304.2864280157082,128.3164603853511L304.36190964675916,128.4466820082307L304.4046404287219,128.54028514309903L304.4709154108132,128.84351788894855L306.6102250737167,130.45634818566032L307.12427416494756,130.98524301459838L307.45179489901057,131.35141579716583L307.99860152153997,131.91692235051596L308.57177028773003,132.55771774113236L308.7191572667798,132.72249305031437L308.8437743561808,132.90763550980773L309.62984502982,133.78643148290575L309.8263640161749,134.0061292972532L310.0556368332618,134.26244281801337L312.6531793271279,137.21206309381523L313.609457253915,138.23522031139873L319.0142150291067,144.27647575715673L320.82227769667224,146.25147163981455L321.0515847947827,146.50775437727862L321.3564005336957,146.89424235398474L323.2891694166756,149.05430701206205L324.0326423588267,149.8393715458369L328.3234296622977,154.40525024099043L330.30359304181184,156.98439397514449L330.4574075564742,157.11045273506898L331.05351730920665,157.7307173514564L332.5114718007826,159.35975030744157L334.1441307786881,161.4587664113933L334.66750305806636,161.81447411005502L335.38194060830574,162.6584879855218L336.37764879330643,163.67930757474096L338.0814525151218,165.58278336761578L339.33018930393155,167.06942098629952L340.01466236714623,167.74245337714092L341.53832976876583,169.44453403774241L343.1603330751386,171.2563952171331L344.0933475359634,172.06957851546758L344.58850601488666,172.71427361029782L344.6212747111276,172.75087596436788L344.78511841192085,172.93388753818L345.55244380813383,173.92837432016677L347.36114616943814,175.90278438763926L347.89547720036353,176.5453820420371L349.0588292731554,177.84471063519595L350.07472926963237,178.9793220948486L350.69738460741064,179.6747228930617L351.30365935579175,180.35181912401458L352.0410272877052,181.17530849465402L354.7830060969136,183.96263693782385L356.9278735698317,186.724128347254L356.35254717839416,187.2723277187324L354.64568103120837,188.80088746656838L354.37258242443204,189.0454570470465L353.2801879335311,190.02373542601708L352.71123242907925,190.5332554512861L352.5974413248914,190.6351594592852L351.50504666825873,191.61343798667076L351.368497329051,191.7357228089677L350.50368481042096,192.51019338339393L349.32025705037813,193.56999531424663L348.76496985960694,194.23215970328602L346.2087486654491,196.3234846269188L345.155500721914,197.2996837223909L344.2451712752518,198.11491633554397L343.90379771484004,198.42062858150166L342.8214233925537,199.45589171984466L341.26384185175993,200.78480357855733L340.74040225810313,201.25356247603486L339.420424051219,202.4356502211449L338.1004456997616,203.61773809570877L337.4404564699362,204.20878208141949L336.78046720415296,204.79982609937724L336.1204779024265,205.39087014948018L335.87013712344924,205.61505928033148L335.5060050720349,205.94115256986697L335.25566428036836,206.16534171203966L333.07087169840815,208.12190169407404L331.796409178467,209.26322851184523L330.5219465260452,210.40455544827273L329.4970259207912,211.91612028241798L328.9699270906276,212.28920678446593L328.0686697044439,212.93139720725594L326.7641280704702,213.9017559706408L325.4532183591364,214.9107976735395L325.1091408326902,215.3508731816255L323.4441247589857,216.74299825679918L322.2151778037951,217.84356425670558L318.0504122278944,221.57326094627206L316.27526582714927,223.16296810591302L316.07044122644584,223.3463958694192L313.4860275883402,225.7268101356167L311.28850609477377,227.76075184861838L311.0154067141266,228.00532251576078L310.30353720371204,228.67581902456004L309.15926065800886,229.7335529752163L306.50290402233077,232.0794289648329L303.81742601400765,234.48437551120878L302.67951143716346,235.5034208070865L301.13194745434157,236.88932255130203L298.82332257523376,238.8907929903653L298.11781503081147,239.52260101924185L297.60073444292357,239.95267035644792L297.0608953420742,240.40312040426943L296.2225150280283,241.25290799069626L295.6471971726278,241.8011226876988L295.16927276700153,242.22912196573452L295.1237561560556,242.26988380255352L294.0085991392989,243.26854884756904L293.64446621575917,243.5946435741207L293.57619129147497,243.6557863363705L293.3258498995274,243.87997646717122L293.25757497365703,243.9411192308471L293.0982668118959,244.083785680632L292.7796504827129,244.36911858526582L292.3700009055319,244.73597518689348L289.206595417927,247.5689237638726L288.91073731290817,247.83387582292198L288.5054385968833,247.7018567625928L288.36888833167905,247.8241419221158L286.2523590457131,249.71956205187598L286.465556012452,249.95762876677327L285.9712312375341,250.36731524360948L285.7416333828296,250.1109342976706L285.3092239634425,250.49817054509185L285.51606456839363,250.77493362074893L285.15929816257267,251.29243045515614L284.3908642089373,251.71659135223308L281.9102045106847,253.9381109301612L281.0681456125021,254.69220482278615L280.02126150546246,255.62972702355182L279.54333612596383,256.057726312647L278.3371434283763,257.13791506015696L276.74405857340025,258.56457958700776L276.4481999374839,258.8295315884898L276.4254415806208,258.84991251189786L276.35716650979884,258.9110552823404L276.33440815276117,258.9314362059231L276.10682458056544,259.13524544329266L275.7654492153233,259.44095930554613L275.69717414125626,259.5021020789136L275.5606239921908,259.624387626478L275.4923489171342,259.6855304007331L274.71856471008505,260.3784818629065L274.33167259061884,260.72495760828315L273.34404033805185,261.77443836400926L271.72819798965065,263.2214859522792L271.0189983249584,263.7575859459903L270.47648900146305,264.34243842287106L269.4296050357807,265.279962383167L269.38408833986614,265.32072429607797L267.1738664693694,267.4320867743663L266.8552497714845,267.71742046844156L264.9790171156492,269.3316456301982L262.5883538326598,271.2415200168034L262.52007869551016,271.3026628466614L262.0649111063685,271.7102817196719L261.79181054607034,271.9548530495813L261.58698512244155,272.13828155005467L261.304872529945,272.55596588029584L261.0063562809519,272.955332972575L259.95046199629724,274.065972909244L259.8075583521568,274.22695812200254L259.6318454229622,274.35130706582277L259.51805378796416,274.4532121232478L259.42702047932835,274.53473616973497L259.29047051530506,274.65702224042616L258.9554491428862,274.92403810753603L257.830239215793,275.865689465616L257.7619641900528,275.92683246632805L256.80241506044695,276.68711631407496L256.20064569212263,277.16000331802934L256.08685386853176,277.2619082162855L253.83272807762842,279.0494852315169L252.75407892894873,280.1805115251773L251.6098076485505,281.2382610734785L251.14563738391735,281.81900400307495L250.70422650566616,282.37936693239317L250.14162004797254,282.8501915549132L249.57901337849034,283.32101597347355L249.0063517515955,283.734818590965L247.90019194835622,284.56036143655365L247.82556515072065,284.6602059133729L244.72777957671497,287.5664485818561L243.70365307948668,288.48359421848727L242.79596291240887,289.1644056729856L241.10971608872933,290.2122836972994L239.67064844998822,291.7651457383181L239.23823858067044,292.1523842584138L237.9637673165562,293.29371890690527L237.25825639319373,293.92552919908485L236.64377911125484,294.4758156059688L235.98378496663645,295.0668639930518L235.41482447471935,295.5763884847838L234.2769034287776,296.5954375238216L233.1389823002828,297.61448663682677L232.20588691346347,298.45010696449026L230.68107238218363,299.8156329721096L229.27004984933592,301.0792541708797L229.17901613321737,301.16077812305593L228.49626324590645,301.77220777908224L228.2459205132036,301.9963986595685L227.78176969080232,302.5771651401883L227.36948467831826,303.07846492083627L224.57283344348252,305.45088822468824L224.41987204083125,305.55484911786334L224.204982808762,305.6812467190757L223.8535428396135,305.9299301320716L222.6701040906628,306.98974190390436L222.6245872139698,307.03050389667624L221.8735587302217,307.703076793885L220.59908607238322,308.8444126905233L219.80254061064625,309.557747671206L217.7087637836812,311.4327997858927L217.41290399312857,311.69775282136106L216.91221818164922,312.1461348922312L216.41153235496313,312.59451697669283L215.13705927319825,313.7358532529761L214.3632719971938,314.428807463526L213.8398276429798,314.89757062424906L213.339141723598,315.3459527917439L212.83845578912587,315.79433497277205L212.29225293446507,316.28347918549844L212.14935684886586,316.44447391580616L211.76880851532042,316.7522424043709L211.1998471716215,317.2617676588852L210.60812735372747,317.79167394190154L210.06192442640895,318.28081821971864L209.8279949115822,318.5233374817617L209.57765193840896,318.74752866778L209.57130703811708,318.78623786558455L209.0933796185418,319.21423932607286L208.7747613313113,319.4995736398123L208.09835247583396,320.0722948347684L207.33090952482598,320.7265398460295L206.4205711265531,321.54178047567257L205.73781729591428,322.1532109764812L205.03230497555342,322.78502251971804L204.82747881260002,322.968451682289L204.8047203499009,322.9888327004737L202.96128477064485,324.63969526454457L202.16473847157613,325.35303099511657L201.3226752011833,326.1071288031817L200.0455866393604,327.3829295296164L198.91773647759692,328.4590233377676L196.769488096048,330.5480203539919L196.1094936522859,331.13907162497344L194.64400192824542,332.61664089825354L192.7248291367141,334.13714001281187L190.89520512335002,335.94081026768254L190.8041714431456,336.02233467969927L190.73589618271217,336.0834779890138L190.23894543785718,336.6276206212933L188.87491770299675,337.4857834657014L187.4295841378189,339.07745193023584L186.41440003459866,339.8214135135786L185.82268053667212,340.3513218554581L183.20545945040067,342.69514741971216L157.3884452461789,365.98054060667346L157.08249769760005,366.18843698759156L156.11913696382544,366.8528869772417L155.7740069518477,367.06282459179056L155.44905268002185,367.38688002208073L154.4286736099166,368.3998093723494L154.10371982622019,368.7238653659442L154.03544437345408,368.7850087244733L153.8369529157062,368.9297183591116L151.77859945276577,370.7069582345721L146.08779199824494,375.5719443551934L144.61406201097998,375.43751183670247L142.01290848436474,375.18896133214L141.91811591290752,375.1746972816909L141.89535686753516,375.19507779661217L141.78413943885243,375.1624719159008L141.68934682603867,375.1482076647226L141.65016292546352,375.15024638851173L141.555370287213,375.1359820206708L141.34936014837876,375.0891112132813L140.68581102877215,374.9892569742515L140.47980063711293,374.9423844415287L138.93026405881392,374.6774431121157L138.38426488284313,374.5714610650466L136.32790663375636,374.1984590647626L135.83751444226073,374.1087696494651L135.34712188325648,374.0190779391414L134.32715105032548,373.8417238130205L134.08195424178848,373.79687471684883L132.8003595538612,373.55631275601627L131.94721263437532,373.4278591154143L131.6464055702818,373.36669596188585L131.1004004485294,373.26067586793215L129.25003264847328,372.9344264047977L128.21362762142962,372.7386687308608L127.383235122732,372.5897997826687L127.23283061572874,372.55921172344824L127.08242607800639,372.52862344580353L126.26845641339605,372.3980903741467L123.85563934230595,371.94735270473757L123.04166539946164,371.8167947561451L122.6990805688547,371.89215331680316L122.0519345546927,371.810528199494L119.18529141771432,371.4024130182079L118.22090368682984,371.2412188244052L111.72428532435151,369.984271852416L111.2502979166893,369.91281552950386L111.00164204211615,369.17696788666944L110.37555735692149,367.423969422307L108.81438633761718,362.83969065021665L108.77780307567446,362.70719952763466L108.74121998682676,362.5747084140894L108.64529001395567,362.33010086887225L105.04593562246009,352.994227507952L104.97017920741928,352.8637600701477L104.34811207541497,351.2065388975461L103.99845667993941,350.49510435629054L102.92675559001509,348.38116568606347L102.53793512111588,347.67174859246006L102.45211424729496,347.48420814584824L102.11628160413238,346.92563055946084L102.03046220065153,346.73808974813437L102.0140430592437,346.71974006292294L101.96258857373323,346.204078858078L101.79816957948788,344.60002802469535L101.74672514149279,344.08436928161245L101.71388792365906,344.047669794425L101.71651556449069,343.9131570055615L101.70644576739869,343.85608625708846L101.71279455856711,343.8173652624537L101.65346918514115,343.7052452640055L101.61691134105786,343.5727540300286L101.5135878805886,343.1365594665549L101.46696148042975,342.9469975951506L101.40391708553943,342.73908594703244L101.22748530851095,342.0379094763048L101.17079228759394,341.7912771540141L101.1543741353671,341.77292729688634L101.11781880845956,341.6404362207977L100.94248171811341,341.1695634685457L100.88950918821502,341.01872248934524L100.5955320175417,340.32360867269745L99.730047797726,338.25661348529684L99.45250769595441,337.5798473397881L99.43609038587601,337.5614971390605L99.06904058122018,336.6013976808026L97.96794750906702,333.7210949349392L97.70685522626445,333.06267622132145L97.62370443518739,332.7406233519141L97.3324294162885,331.91099325990945L96.50418547316804,329.38136416602356L96.23570836364524,328.5313648502197L96.06414041445532,328.1562774104241L95.99477237933024,327.9870844862453L95.9153438959911,327.76082140090875L95.54573996341787,326.9352242886089L95.29475302746869,326.33387248155486L95.2354479925416,326.2217492718046L95.17614309006603,326.1096260255872L95.08030397811672,325.8650114757038L95.05382939448464,325.7895903066237L94.95799108107167,325.54497569000523L94.68689456790162,324.8294826647907L94.59105864999583,324.58486784796696L94.56353498628596,324.27914998101187L94.5487241952651,323.8959947414696L94.55137775999901,323.7614872205304L94.53656873032742,323.3783325365657L94.52916470631317,323.18675534572685L94.64728055585874,322.5856081623788L94.80088324558164,321.8866580626054L94.98361736146035,321.1286243017821L95.07631452883652,320.68235531586106L95.08267153405177,320.6436370141164L95.09538557994529,320.5662004281621L95.1017426205799,320.52748214393796L95.12081381316239,320.4113273264229L95.15629896927567,320.3135236213129L95.16265608467802,320.2748053767864L95.16901321188197,320.2360871380806L95.2553561496461,319.8285379382287L95.28448443191883,319.7694526386622L95.32632733110222,319.6329310619767L95.41267209753278,319.2253828820685L95.52976729739748,318.3939535692043L95.70408998942003,317.21406666030816L96.02141068484343,315.8732674021594L96.21689647034509,315.03781747390167L96.23966796910099,315.01745088426105L96.25238538978738,314.940016033579L96.25874411780387,314.90129861705645L96.31597320048604,314.5528421311028L96.43412873515626,313.95171590766404L96.48766617842193,313.5074755151727L96.54489908098185,313.15902092383476L96.58305487989855,312.9267181260366L96.57936120903469,312.83093313494464L96.63023651838012,312.5211965024646L96.6429554635979,312.443762402836L96.6683934955363,312.28889427371905L96.67475303300307,312.2501772560354L96.67105991378776,312.1543924846337L96.69013869082846,312.03824150565197L96.70921757399628,311.9220905792754L96.76645486017514,311.573638115995L96.78553416774957,311.4574874001555L96.84646500075178,311.2048199897399L96.9482242964441,310.5853510287707L96.95089261153771,310.4508500675438L96.98905338416807,310.21854970602726L97.00813392964483,310.1023996042204L97.13329890904424,308.8674988558341L97.16510197719617,308.6739163724269L97.20491788245272,308.07683426591393L97.21394992276328,307.9036180821713L97.37297576363198,306.9357106171956L97.84373543516267,304.0707259439514L97.99642811104422,303.1415486036858L98.01551517299959,303.02540167301777L98.05000418503187,302.6973263040709L98.06909165921388,302.5811795702466L98.23083643951395,301.4787954846688L98.25997223616287,301.41971512728196L98.41168050625129,300.26027036186133L98.65617290695081,298.65460083914513L98.73253828915767,298.1900214952184L98.8943215655454,297.08765599274193L98.87791235253098,297.06930568040116L98.91341418973752,296.9715117835585L98.89700499993342,296.9531614750449L99.00519867255935,296.29501197245554L99.24337671311514,294.72808133711806L99.323435101207,294.35928793983476L99.43164219999744,293.70114510033454L99.57705644842645,292.5804484731925L99.99695229210192,289.20003680019L100.16518162867578,288.058995726431L100.2479531444551,287.5557220559567L100.54182880923327,286.00518077223387L100.64738303342892,285.48154813301517L100.77474021739908,284.7072892383876L101.17961501592072,282.36416392104L101.32976617892564,281.56955189511064L101.34250405862986,281.4921270889463L101.40986208507093,281.200777907623L101.44537526929344,281.1029906811309L101.46448251973197,280.98685370119347L101.52277095457248,280.8687040533405L101.54824758019822,280.7138549121737L101.72485091074486,279.99465985961433L101.82405970673426,279.50975199574896L101.94971184807946,279.1002565041854L101.95608151009947,279.0615444879513L101.95241527662438,278.9657707754959L101.98967167681258,278.50323974891216L102.00878126297903,278.38710397500836L101.99874568278028,278.3300423737819L102.00144999465556,278.1955569861748L102.03233929547423,277.7717390198959L102.03504424830317,277.63725387869636L102.06052481780353,277.4824066855217L102.07597054085636,277.2704981528659L102.10415726172505,276.9811663366272L102.11689793100231,276.9037429206801L102.12963864742778,276.82631952819065L102.132344672209,276.69183482170047L102.17327380242932,276.3250803611154L102.19875600429077,276.1702339374169L102.20146277241292,276.03574953334464L102.27154027398501,275.609922558142L102.27424767235061,275.4754384182306L102.29973092615546,275.32059249629674L102.36981084640138,274.8947666938766L102.3952948073129,274.73992112313863L102.3624853224901,274.70322189532453L102.4562968864193,274.4872911997081L102.70763353076472,273.6683180424443L102.79141345465905,273.39532763141324L102.84238506188558,273.08563850514474L102.94975238824554,272.1972963464359L103.00072694779374,271.8876086452947L103.03624675638275,271.7898253380408L103.12640246629599,271.47812620393233L103.16192254758789,271.3803430708067L103.1546026141441,271.1888007804955L103.25018507272762,270.60813898034394L103.2428664056788,270.416597180345L103.33939775971521,270.066189155099L103.43864389289229,269.58130046249426L103.56704086401442,269.0373410900502L103.63442657903943,268.74600663573074L103.64717222376203,268.66858573701757L103.69449770162464,268.26313224545447L103.83282566307753,266.95100569789065L103.88015682096011,266.54555476570386L103.89290383129264,266.4681345144636L103.89562136825407,266.3336548725638L103.92477156338282,266.274583988823L103.91474210144952,266.21752459609706L103.94932826359582,265.88949481831514L104.06312083205557,264.9624670079793L104.0977103535115,264.6344387421559L104.081307630011,264.61608947032073L104.0876817295939,264.57737962456304L104.09405584096385,264.5386697846552L104.10042996417906,264.49995995056815L104.08037288724154,264.3858417592419L104.0439132831234,264.2533743091044L103.91082542466756,263.6460851336742L103.84062946807535,263.246672013629L103.41131372755626,261.2536314438039L103.2281115152291,260.36105050632614L103.00481391954236,259.24023584373936L102.95833535162092,259.0507103425771L102.89545556521625,258.842835363248L102.85900312651938,258.71036855485L102.59381602365465,257.7260425708373L102.44436527905054,257.1004082382715L102.2985656420642,256.5705416296405L102.25209202896804,256.3810165094328L102.22566686182108,256.3056083805568L102.16916978245717,256.05902482579404L102.122697116778,255.869499784676L102.1126732929988,255.81244133372093L102.09262573823798,255.6983244472067L102.06620108206698,255.6229163367825L102.05617739341687,255.56585790433746L102.04615373570414,255.5087994770147L102.0297528370138,255.49044979490282L102.04250739261624,255.41303232051723L102.02610651309078,255.39468263772142L102.01608294817561,255.33762422578002L102.00241327293043,255.18479871148884L101.99238982034149,255.1277403220156L101.92951807533973,254.9198657834495L101.90582577577152,254.70998203258205L101.8393094346684,254.4063406114583L101.8192634103325,254.29222396296973L101.75639336714812,254.08434955844132L101.7363476978062,253.97023295317194L101.81197090023488,253.27548891447077L100.97286952170543,249.99853114208963L100.53742883059022,248.04422928883287L100.16851708749891,246.39357004391786L99.12203643952671,241.78395405122137L98.25788630542229,237.83668278262485L98.09854262652516,237.1540044098365L98.08489912970981,237.00118397978076L98.02844810544048,236.75460570503492L97.79902119237522,235.67253004439408L97.69976694599609,235.33219420703244L97.66610106886947,235.06526065994694L97.0150306897267,233.00690112943994L96.78840355399007,231.79036080212973L96.23786388828012,228.6522558095894L95.71743970627722,225.68533446386573L95.27968816492648,223.86555211422092L95.11404836992733,223.22158897775807L94.95118441720842,222.4431608846644L94.76301514913212,220.99441163422307L94.54653165281343,219.83494827334653L94.51929461982218,219.5293173849932L94.35923453197756,218.61642964369094L94.2191884500935,217.8176539488777L93.75907971952984,215.19311232764449L93.76547091180691,215.15440853369364L93.71546313424187,214.8691329613357L92.45892970002024,210.48155534548278L91.16253434223472,203.98533182786196L90.70038494946493,202.55061608730466L90.37577253945346,201.2240143896197L90.16870556166396,199.89142074385018L89.91608234215528,198.599529612271L89.72421919096087,197.88017635777942L89.27775610513345,196.23360509664053L88.20354670457891,191.45308490877505L87.74206288454297,189.19329744408606L87.41531110252254,187.17609092513158L87.147993906372,186.32628140610177L86.93624615106091,185.49282984840102L86.90987390645023,185.4174242389854L86.80438550228428,185.1158017800626L86.71810338407522,184.69807892735116L86.701716645126,184.67972618021304L86.69173173798481,184.62267332412011L86.6717620164709,184.50856762737385L86.3102670321532,182.8193259408581L85.84388193822815,180.00340277141368L85.16323335831112,177.5437582534214L84.86888431689295,176.38834605083684L84.46909041753679,174.93131358985556L84.22466609967523,174.06116377274157L84.14200188765244,173.73919696279336L84.13202298207034,173.6821449152194L83.61893956418498,171.50179300704622L83.60896188588231,171.4447411249712L83.51632842856634,171.06572317579412L83.37664709625824,170.26699774482404L83.3395762607106,169.90434225677745L83.03598826486268,167.86684534333472L82.93193808670912,166.9703839149879L82.73528140356939,165.69490910677996L82.76872018584982,164.90658235148294L82.75874604858109,164.84953114909877L82.56355461325438,164.03445170837222L82.21592854551272,162.49805298412684L81.66533160020481,160.780109124913L81.00508600025205,158.43460617183882L80.82276822718268,157.54213697755767L80.73018577737093,157.16312485841627L80.66039737554092,156.76377011854493L80.547878937301,156.27065705877612L80.39548661264416,155.5493419552222L80.23744339845143,154.04171020655485L80.23388766188873,153.94596346381877L80.21750707227329,153.92760942003224L80.2075389555539,153.87055903450528L80.18119030665548,153.7951546030963L80.17122226319043,153.7381042259076L80.15484171514981,153.71975016959186L80.12849318105145,153.64434573396284L80.00887971612974,152.95974162392667L79.77885859942762,152.47259486430266L79.45697203298914,151.83662637016096L79.2861547517532,150.40639536609524L79.118113431643,149.89691885802313L78.8277427842695,147.78209358343156L78.81777803332079,147.72504366590874L78.80781331325124,147.66799375355185L78.41702746202645,145.80767704320897L77.97359253579634,143.79655640102283L77.74868158345635,142.81034527609881L77.52597941603744,141.459512655274L77.35664147954958,140.48967355015338L76.985903701192,138.74347216110618L76.44566776063584,137.08260188711574L76.19917292954051,134.23660340465722L75.484638378417,132.10496263284585L75.29612639118568,131.25121668961947L74.84301967425563,129.18308139996952L74.72067841624084,128.63293535129924L74.01365806155081,125.637644458242L73.34652930217271,122.87055402844271L73.26049778357265,122.45286286268674L72.91059297027823,121.05096536551719L72.83451873858576,120.69032285225694L72.4875379303412,119.15399551234441L72.45126617744972,119.0215445231006L72.41499459744955,118.88909354327188L72.22016707796138,118.07405152636056L71.92296401481144,116.8229658848868L71.46662598355033,114.65912329564162L71.31100347322354,113.84210493889987L71.70791898405878,113.32327788085968L71.85113931787782,113.1625728719664L72.17323238731478,112.74344494201068L72.33282529591816,112.60109581440338L72.94839792803396,112.05203490740678L73.58034264203161,111.5213293962588L73.78553346931585,111.33830906492949L74.9190553555236,110.36022018754738L76.33259173842089,109.09941333411552L76.78857118925953,108.69270147047064L78.58968988835113,107.08618972646946L80.96078253741143,104.97128847718704L81.6511797971616,104.32253152654448L83.1266841548204,103.03940781521669L83.55986444129667,102.65303171583219L83.95738837729732,102.3643689792516L84.51450467141694,101.93335673840193L84.98685366605059,101.5449978192919L85.49837145610945,101.15465610907995L86.59623180166818,100.27427625202108L89.0023858188797,97.83151591123897L89.23680494101427,97.58947228061152L93.34704637124378,93.89038207790873L95.64565165153181,91.51063169341069L96.50616318115499,91.00670157595596L97.09250493676518,90.51666344671685L97.6724153416435,90.06531122277374L98.36924605164677,89.37787234716234L98.78605844643607,88.97314648747852L98.90005320032651,88.87146874140308L99.63955556735164,88.27776706345321L99.68515345019114,88.2370959489781L99.73075133288512,88.19642483463394L99.79914815664233,88.1354181633651L99.82194709782198,88.1150826063531L99.99790708599903,87.99108379968675L100.68187517525803,87.38101697375532L100.77307091804687,87.29967473246506L101.43424003612017,86.70994349848479L101.48626970719488,86.63058702992566L101.50906864575518,86.61025147524197L101.57746546108683,86.54924481148191L101.645862276142,86.4882381479838L101.94224847089208,86.22387594287284L102.10184103474603,86.08152706545661L102.19303678476717,86.00018485049077L102.23863465954491,85.9595137432043L102.30059952437296,85.93719226721441L102.73377924898523,85.55081666898332L103.8281279688963,84.57470994628966L104.4209001573472,84.04598550256924L106.13725241852808,82.48213454712823L106.20564921184268,82.42112790301326L106.25124707387295,82.38045680710638L106.29684493575769,82.33978571131593L106.63239618242369,82.07343680945633L106.88961712698801,81.81106147794344L108.59310371166794,80.32457946105569L109.17944254972099,79.83453899795131L109.89264227365493,79.16545321208832L110.91803033003816,78.02024062401324L112.05504173254303,77.13786225688818L113.20841664091859,76.27382964604476L114.37759494181955,75.19803379103541L114.77804469365219,74.77496417220391L115.19485943297332,74.37024195150298L116.29619896845543,73.5855596883921L117.24731796974083,72.77014854889421L117.33851352513011,72.68880631105276L117.40691019127553,72.62779963301728L117.52090463410423,72.52612183694146L119.24718517126166,71.01930123889179L124.76800477967481,66.19380295333394L126.80485498224152,63.52060008182889L128.47615670050436,62.22752092270821L129.2513204626739,61.53611497936072L129.730098058164,61.10907015194243L130.36846815900935,60.539677072301856L130.6420553358039,60.29565147504036L132.29001564158534,58.79281890130369L133.67431283730548,57.591034772689454L134.905454784006,56.49291989613266L135.04224832658656,56.37090713834914L135.24743863783078,56.18788800400216L135.31583540755673,56.126881626521936L135.97700416322914,55.53715332712454L136.41018367490324,55.15077962970827L136.78140456641268,54.78673412557691L138.21773674391443,53.505600702163065L140.152162384009,51.68139051356411L141.14539432665333,50.72961233303067L143.74447292176774,48.411374387462274L144.78034455073066,47.55329828266986L147.36809605982853,46.002597190556116L147.45285153209988,45.95993121061474L147.56040580033732,45.89692966401344L148.09121851163218,45.390536330858595L152.6177534819144,41.05669727400527L155.21682193508605,38.73845251003513L156.82909816764004,37.33330784604186L158.340263141974,35.95249232703645L162.8018928971578,31.775373284108355L164.27043550591043,30.300877404632047L164.9643142716086,29.747824643040076L166.39469366753474,28.735400303834467L167.13020600253367,27.81595979836129L167.9217223945161,27.142892129850225L169.37787231584662,25.975776416336885L169.99046396520862,25.56107034480374L170.62883081589825,24.991677642872673L170.76562370815373,24.869664924874087L170.83402015370666,24.808658566413214L172.06515610800125,23.71054417223786L172.6807240385824,23.161487016725005L173.10399155528285,22.718107094435254L173.78747082552582,21.878019462063094L174.42583849425137,21.308628093320294L175.26939571923867,20.556218116355012L176.38057599696913,19.828474410198396L176.67994213067868,19.42976839392213L177.28858432920242,18.689362642544438L178.69268399510474,17.60158181011502L179.61752828207682,16.710826206588536L180.28860160690965,16.178103060708963L181.12917315978848,15.560034657566575L181.5787032670196,15.191995343775488L181.75464767683297,15.067981077198056L181.7774464713293,15.047645642829593L181.84584285448364,14.986639340000693L181.89144044303976,14.945968471642118L182.2562211452605,14.620601530303247L182.81282430658757,13.959541798409191L183.70150517032016,12.936450426946976L183.9522923987679,12.71276129319449L185.35890323639615,11.260628524425556L185.9680255424464,10.7502424515842L186.0364221072814,10.689236404185067L186.37840492538817,10.384206172646373L186.4696003418794,10.302864779019728L186.60639346529206,10.180852689838503L186.85718085411645,9.957163863291498L187.98123896721518,9.15206829602539L188.94224644941278,8.39365032556816L190.63281446197652,6.984498597230413L192.02008579137328,5.64837366611755L193.56395642264397,4.304234677983914L196.39220847995603,7.245518021736643L199.17197503459465,10.36170923546888L201.33988096176472,12.60827574141149L203.47264611642458,15.182454165696981L203.75064498580468,15.494053469941719L206.12185486088856,18.151773834921187L206.69075787971087,18.697617971614818L209.6210692145687,21.844080660608597L210.6583377274801,23.190076982893515L211.51868872558407,24.20012250394211L212.53912310983287,25.297770958204637L213.98828216483525,26.967581464821706L214.90417911887926,27.993904905350064L216.9060030245164,30.191119752504164L217.2004088233807,30.521000046341214L217.59295173555438,30.960838789702393L218.2244019182981,31.714241399313323L218.5416058212286,32.02377464185702L218.71160445554415,32.168369630904635L218.8488907827268,32.2763116316637L219.0253260415193,32.38223728824232L219.25083033321425,32.543141335088876L219.4763348891429,32.70404478585988L219.64633456029696,32.848637883304036L219.94718581270718,33.139839572817436L220.57221837880206,33.93189274070028L220.9484209815273,34.35338939966459L221.78261627648317,35.28800625410804L221.9952558172663,35.52624056223431L222.4696077938279,36.057684334606165L222.89489149636938,36.53414882635116L223.08474274537002,36.79272376994777L223.24885776599695,37.20597442711005L223.4030512846948,37.562230412484496L225.58798162003222,39.82647948592785L227.85587192184175,42.6422852226824L229.21306579656084,43.933213146810886L229.91942314160406,44.58682011409837L230.2956747484568,45.008273783212644L231.12354819095344,45.9814649700711L234.2061086989852,49.61762078058382L234.38606594367593,49.81917636565049L238.6391431635857,54.35310617275536L239.8989261000097,55.76391869809595L241.74190784567327,58.102963307115715L243.57029734854586,59.829319666008814L244.50292426721717,60.873633038499975L244.63382022590667,61.02020248574263L246.1163548167242,62.726086039692746Z"></path></svg>